<svg xmlns="http://www.w3.org/2000/svg" width="1200" height="800" viewBox="0 0 1200 800"><defs><radialGradient id="g" cx="50%" cy="50%" r="60%"><stop offset="0%" stop-color="#ffffff" stop-opacity=".9"/><stop offset="50%" stop-color="#e7d3b4" stop-opacity=".35"/><stop offset="100%" stop-color="#6e1f2d" stop-opacity=".15"/></radialGradient></defs><rect width="1200" height="800" fill="url(#g)"/><g fill="none" stroke="#d4af37" stroke-opacity=".3"><path d="M0 120C180 40 300 40 420 120s240 80 360 0 240-80 420 0"/><path d="M0 300C180 220 300 220 420 300s240 80 360 0 240-80 420 0"/><path d="M0 500C180 420 300 420 420 500s240 80 360 0 240-80 420 0"/><path d="M0 700C180 620 300 620 420 700s240 80 360 0 240-80 420 0"/></g></svg>